<svg xmlns="http://www.w3.org/2000/svg" viewBox="0 0 200 200" width="200" height="200">
  <!-- Sleep Quality Icon -->
  <defs>
    <linearGradient id="sleepGradient" x1="0%" y1="0%" x2="100%" y2="100%">
      <stop offset="0%" style="stop-color:#1B5E20;stop-opacity:1" />
      <stop offset="100%" style="stop-color:#2E7D32;stop-opacity:1" />
    </linearGradient>
  </defs>

  <!-- Moon -->
  <circle cx="100" cy="80" r="50" fill="url(#sleepGradient)"/>
  
  <!-- Moon crescent detail -->
  <circle cx="120" cy="60" r="10" fill="#ffffff" opacity="0.3"/>
  <circle cx="85" cy="95" r="6" fill="#ffffff" opacity="0.2"/>
  
  <!-- Stars -->
  <polygon points="40,40 43,50 53,50 45,57 48,67 40,60 32,67 35,57 27,50 37,50" fill="#FFD700"/>
  <polygon points="160,50 162,58 170,58 164,63 166,71 160,66 154,71 156,63 150,58 158,58" fill="#FFD700" opacity="0.7"/>
  <polygon points="50,110 51.5,115 57,115 52.5,118.5 54,124 50,120 46,124 47.5,118.5 43,115 48.5,115" fill="#FFD700" opacity="0.5"/>
  
  <!-- Zzz bubbles -->
  <circle cx="150" cy="130" r="12" fill="#4caf50" opacity="0.6"/>
  <text x="150" y="135" text-anchor="middle" font-size="12" font-weight="bold" fill="#ffffff">Z</text>
  
  <circle cx="170" cy="110" r="15" fill="#2E7D32" opacity="0.7"/>
  <text x="170" y="116" text-anchor="middle" font-size="16" font-weight="bold" fill="#ffffff">Zz</text>
  
  <circle cx="185" cy="85" r="20" fill="#1B5E20" opacity="0.8"/>
  <text x="185" y="92" text-anchor="middle" font-size="20" font-weight="bold" fill="#ffffff">Zzz</text>
  
  <!-- Text -->
  <text x="100" y="170" text-anchor="middle" font-size="14" font-weight="bold" fill="#1B5E20">😴 SLEEP BETTER</text>
</svg>