<svg xmlns="http://www.w3.org/2000/svg" viewBox="0 0 60 60" width="60" height="60">
  <defs>
    <linearGradient id="whatsappGradient" x1="0%" y1="0%" x2="100%" y2="100%">
      <stop offset="0%" style="stop-color:#25D366;stop-opacity:1" />
      <stop offset="100%" style="stop-color:#128C7E;stop-opacity:1" />
    </linearGradient>
    <filter id="whatsappShadow">
      <feDropShadow dx="0" dy="3" stdDeviation="3" flood-opacity="0.3"/>
    </filter>
  </defs>

  <!-- Circle background -->
  <circle cx="30" cy="30" r="28" fill="url(#whatsappGradient)" filter="url(#whatsappShadow)"/>
  
  <!-- WhatsApp icon -->
  <path d="M30 10 C18.954 10 10 18.954 10 30 C10 33.5 10.893 36.86 12.8 39.65 L11 49 L22.35 47.2 C24.86 48.45 27.83 49 30 49 C41.046 49 50 40.046 50 30 C50 18.954 41.046 10 30 10 Z M30 46 C27.5 46 25 45.3 23 44.1 L17 45 L18.5 39.2 C17.1 37 16.5 34.5 16.5 32 C16.5 22.61 24.11 15 33.5 15 C42.89 15 50.5 22.61 50.5 32 C50.5 41.39 42.89 49 33.5 49 L30 49 L30 46 Z" fill="#ffffff"/>
  
  <!-- Chat bubbles -->
  <path d="M21.5 28 Q21.5 25.5 24 25.5 L36 25.5 Q38.5 25.5 38.5 28 L38.5 34 Q38.5 36.5 36 36.5 L24 36.5 Q21.5 36.5 21.5 34 L21.5 28 Z" fill="#25D366"/>
</svg>